<svg xmlns="http://www.w3.org/2000/svg" fill="#5eead4" viewBox="0 0 32 40" x="1em" y="1em"><path d="M27,16H26V14A10,10,0,0,0,6,14v2H5a3,3,0,0,0-3,3v6a3,3,0,0,0,3,3H9a1,1,0,0,0,1-1V17a1,1,0,0,0-1-1H8V14a8,8,0,0,1,16,0v2H23a1,1,0,0,0-1,1V27a1,1,0,0,0,1,1h4a3,3,0,0,0,3-3V19A3,3,0,0,0,27,16Z"/><path d="M13.89,22.45l.11-.21,1.11,2.21a1,1,0,0,0,.83.55H16a1,1,0,0,0,.83-.45l1.33-2,.13.14A1,1,0,0,0,19,23h2V21H19.41l-.7-.71A1,1,0,0,0,17.9,20a1,1,0,0,0-.73.45L16.12,22l-1.23-2.46a1,1,0,0,0-1.78,0L12.38,21H11v2h2A1,1,0,0,0,13.89,22.45Z"/></svg>